<mxfile host="Electron" agent="Mozilla/5.0 (Windows NT 10.0; Win64; x64) AppleWebKit/537.36 (KHTML, like Gecko) draw.io/26.0.9 Chrome/128.0.6613.186 Electron/32.2.5 Safari/537.36" version="26.0.9">
  <diagram name="Page-1" id="SzmMwvYjo2_tDRgzkFQ2">
    <mxGraphModel dx="2514" dy="1040" grid="1" gridSize="10" guides="1" tooltips="1" connect="1" arrows="1" fold="1" page="1" pageScale="1" pageWidth="827" pageHeight="1169" math="0" shadow="0">
      <root>
        <mxCell id="0" />
        <mxCell id="1" parent="0" />
        <mxCell id="1unsUa5NZZKn3KWUAOsR-1" value="" style="rounded=1;whiteSpace=wrap;html=1;snapToPoint=1;points=[[0.1,0],[0.2,0],[0.3,0],[0.4,0],[0.5,0],[0.6,0],[0.7,0],[0.8,0],[0.9,0],[0,0.1],[0,0.3],[0,0.5],[0,0.7],[0,0.9],[0.1,1],[0.2,1],[0.3,1],[0.4,1],[0.5,1],[0.6,1],[0.7,1],[0.8,1],[0.9,1],[1,0.1],[1,0.3],[1,0.5],[1,0.7],[1,0.9]];fillColor=#E6E6E6;dashed=1;dashPattern=1 4;" parent="1" vertex="1">
          <mxGeometry x="-310" y="180" width="550" height="360" as="geometry" />
        </mxCell>
        <mxCell id="SjGbqMPoIrOMk5xAmUnZ-7" value="" style="rounded=1;whiteSpace=wrap;html=1;snapToPoint=1;points=[[0.1,0],[0.2,0],[0.3,0],[0.4,0],[0.5,0],[0.6,0],[0.7,0],[0.8,0],[0.9,0],[0,0.1],[0,0.3],[0,0.5],[0,0.7],[0,0.9],[0.1,1],[0.2,1],[0.3,1],[0.4,1],[0.5,1],[0.6,1],[0.7,1],[0.8,1],[0.9,1],[1,0.1],[1,0.3],[1,0.5],[1,0.7],[1,0.9]];fillColor=#E6E6E6;dashed=1;dashPattern=1 4;" parent="1" vertex="1">
          <mxGeometry x="-170" y="180" width="410" height="360" as="geometry" />
        </mxCell>
        <mxCell id="umWT4CQzPr7KXGaEn9dq-6" value="" style="endArrow=classic;html=1;exitX=1;exitY=0.5;exitDx=0;exitDy=0;entryX=0;entryY=0.5;entryDx=0;entryDy=0;endSize=8;arcSize=0;rounded=0;" parent="1" source="umWT4CQzPr7KXGaEn9dq-2" target="umWT4CQzPr7KXGaEn9dq-10" edge="1">
          <mxGeometry width="50" height="50" relative="1" as="geometry">
            <mxPoint x="219" y="225" as="sourcePoint" />
            <mxPoint x="409" y="225" as="targetPoint" />
          </mxGeometry>
        </mxCell>
        <mxCell id="umWT4CQzPr7KXGaEn9dq-7" value="&lt;div&gt;dcterms:accessRights [1..1]&lt;/div&gt;" style="text;html=1;align=center;verticalAlign=middle;resizable=0;points=[];labelBackgroundColor=#ffffff;" parent="umWT4CQzPr7KXGaEn9dq-6" vertex="1" connectable="0">
          <mxGeometry x="-0.1269" relative="1" as="geometry">
            <mxPoint x="53" as="offset" />
          </mxGeometry>
        </mxCell>
        <mxCell id="umWT4CQzPr7KXGaEn9dq-12" value="" style="endArrow=classic;html=1;exitX=1;exitY=0.5;exitDx=0;exitDy=0;entryX=0;entryY=0.5;entryDx=0;entryDy=0;endSize=8;arcSize=0;rounded=0;" parent="1" source="umWT4CQzPr7KXGaEn9dq-2" target="umWT4CQzPr7KXGaEn9dq-17" edge="1">
          <mxGeometry width="50" height="50" relative="1" as="geometry">
            <mxPoint x="220" y="295" as="sourcePoint" />
            <mxPoint x="410" y="295" as="targetPoint" />
            <Array as="points">
              <mxPoint x="300" y="315" />
            </Array>
          </mxGeometry>
        </mxCell>
        <mxCell id="umWT4CQzPr7KXGaEn9dq-13" value="&lt;div&gt;dact:contactPoint [1..*]&lt;/div&gt;" style="text;html=1;align=center;verticalAlign=middle;resizable=0;points=[];labelBackgroundColor=#ffffff;" parent="umWT4CQzPr7KXGaEn9dq-12" vertex="1" connectable="0">
          <mxGeometry x="-0.1269" relative="1" as="geometry">
            <mxPoint x="80" as="offset" />
          </mxGeometry>
        </mxCell>
        <mxCell id="MMTcVOcszVxUp90W63KL-1" value="" style="endArrow=classic;html=1;exitX=1;exitY=0.5;exitDx=0;exitDy=0;endSize=8;arcSize=0;rounded=0;entryX=0;entryY=0.5;entryDx=0;entryDy=0;" parent="1" source="umWT4CQzPr7KXGaEn9dq-2" target="MMTcVOcszVxUp90W63KL-10" edge="1">
          <mxGeometry width="50" height="50" relative="1" as="geometry">
            <mxPoint x="230" y="225" as="sourcePoint" />
            <mxPoint x="480" y="590" as="targetPoint" />
            <Array as="points">
              <mxPoint x="300" y="395" />
            </Array>
          </mxGeometry>
        </mxCell>
        <mxCell id="MMTcVOcszVxUp90W63KL-2" value="&lt;div&gt;dcterms:creator [0..*]&lt;/div&gt;" style="text;html=1;align=center;verticalAlign=middle;resizable=0;points=[];labelBackgroundColor=#ffffff;" parent="MMTcVOcszVxUp90W63KL-1" vertex="1" connectable="0">
          <mxGeometry x="-0.1269" relative="1" as="geometry">
            <mxPoint x="99" y="17" as="offset" />
          </mxGeometry>
        </mxCell>
        <mxCell id="MMTcVOcszVxUp90W63KL-5" value="foaf:Organization" style="rounded=0;whiteSpace=wrap;html=1;snapToPoint=1;points=[[0.1,0],[0.2,0],[0.3,0],[0.4,0],[0.5,0],[0.6,0],[0.7,0],[0.8,0],[0.9,0],[0,0.1],[0,0.3],[0,0.5],[0,0.7],[0,0.9],[0.1,1],[0.2,1],[0.3,1],[0.4,1],[0.5,1],[0.6,1],[0.7,1],[0.8,1],[0.9,1],[1,0.1],[1,0.3],[1,0.5],[1,0.7],[1,0.9]];fillColor=#CCE5FF;" parent="1" vertex="1">
          <mxGeometry x="610" y="400" width="160" height="30" as="geometry" />
        </mxCell>
        <mxCell id="MMTcVOcszVxUp90W63KL-8" value="foaf:Person" style="rounded=0;whiteSpace=wrap;html=1;snapToPoint=1;points=[[0.1,0],[0.2,0],[0.3,0],[0.4,0],[0.5,0],[0.6,0],[0.7,0],[0.8,0],[0.9,0],[0,0.1],[0,0.3],[0,0.5],[0,0.7],[0,0.9],[0.1,1],[0.2,1],[0.3,1],[0.4,1],[0.5,1],[0.6,1],[0.7,1],[0.8,1],[0.9,1],[1,0.1],[1,0.3],[1,0.5],[1,0.7],[1,0.9]];fillColor=#BDA890;" parent="1" vertex="1">
          <mxGeometry x="610" y="360" width="160" height="30" as="geometry" />
        </mxCell>
        <mxCell id="umWT4CQzPr7KXGaEn9dq-16" value="vcard:Individual" style="rounded=0;whiteSpace=wrap;html=1;snapToPoint=1;points=[[0.1,0],[0.2,0],[0.3,0],[0.4,0],[0.5,0],[0.6,0],[0.7,0],[0.8,0],[0.9,0],[0,0.1],[0,0.3],[0,0.5],[0,0.7],[0,0.9],[0.1,1],[0.2,1],[0.3,1],[0.4,1],[0.5,1],[0.6,1],[0.7,1],[0.8,1],[0.9,1],[1,0.1],[1,0.3],[1,0.5],[1,0.7],[1,0.9]];" parent="1" vertex="1">
          <mxGeometry x="610" y="320" width="160" height="30" as="geometry" />
        </mxCell>
        <mxCell id="umWT4CQzPr7KXGaEn9dq-10" value="dcterms:RightsStatement" style="rounded=0;whiteSpace=wrap;html=1;snapToPoint=1;points=[[0.1,0],[0.2,0],[0.3,0],[0.4,0],[0.5,0],[0.6,0],[0.7,0],[0.8,0],[0.9,0],[0,0.1],[0,0.3],[0,0.5],[0,0.7],[0,0.9],[0.1,1],[0.2,1],[0.3,1],[0.4,1],[0.5,1],[0.6,1],[0.7,1],[0.8,1],[0.9,1],[1,0.1],[1,0.3],[1,0.5],[1,0.7],[1,0.9]];" parent="1" vertex="1">
          <mxGeometry x="510" y="200" width="160" height="30" as="geometry" />
        </mxCell>
        <mxCell id="umWT4CQzPr7KXGaEn9dq-24" value="vcard:Organization" style="rounded=0;whiteSpace=wrap;html=1;snapToPoint=1;points=[[0.1,0],[0.2,0],[0.3,0],[0.4,0],[0.5,0],[0.6,0],[0.7,0],[0.8,0],[0.9,0],[0,0.1],[0,0.3],[0,0.5],[0,0.7],[0,0.9],[0.1,1],[0.2,1],[0.3,1],[0.4,1],[0.5,1],[0.6,1],[0.7,1],[0.8,1],[0.9,1],[1,0.1],[1,0.3],[1,0.5],[1,0.7],[1,0.9]];" parent="1" vertex="1">
          <mxGeometry x="610" y="280" width="160" height="30" as="geometry" />
        </mxCell>
        <mxCell id="Jf8K7NB9ZICqQrIBF7vX-13" value="" style="endArrow=classic;html=1;exitX=1;exitY=0.5;exitDx=0;exitDy=0;entryX=0;entryY=0.5;entryDx=0;entryDy=0;endSize=8;arcSize=0;rounded=0;" parent="1" source="umWT4CQzPr7KXGaEn9dq-2" target="Jf8K7NB9ZICqQrIBF7vX-15" edge="1">
          <mxGeometry width="50" height="50" relative="1" as="geometry">
            <mxPoint x="230" y="415" as="sourcePoint" />
            <mxPoint x="419" y="425" as="targetPoint" />
            <Array as="points">
              <mxPoint x="300" y="455" />
            </Array>
          </mxGeometry>
        </mxCell>
        <mxCell id="Jf8K7NB9ZICqQrIBF7vX-14" value="&lt;div&gt;dcterms:language [1..*]&lt;/div&gt;" style="text;html=1;align=center;verticalAlign=middle;resizable=0;points=[];labelBackgroundColor=#ffffff;" parent="Jf8K7NB9ZICqQrIBF7vX-13" vertex="1" connectable="0">
          <mxGeometry x="-0.1269" relative="1" as="geometry">
            <mxPoint x="111" y="49" as="offset" />
          </mxGeometry>
        </mxCell>
        <mxCell id="Jf8K7NB9ZICqQrIBF7vX-15" value="dcterms:LinguisticSystem" style="rounded=0;whiteSpace=wrap;html=1;snapToPoint=1;points=[[0.1,0],[0.2,0],[0.3,0],[0.4,0],[0.5,0],[0.6,0],[0.7,0],[0.8,0],[0.9,0],[0,0.1],[0,0.3],[0,0.5],[0,0.7],[0,0.9],[0.1,1],[0.2,1],[0.3,1],[0.4,1],[0.5,1],[0.6,1],[0.7,1],[0.8,1],[0.9,1],[1,0.1],[1,0.3],[1,0.5],[1,0.7],[1,0.9]];" parent="1" vertex="1">
          <mxGeometry x="510" y="440" width="160" height="30" as="geometry" />
        </mxCell>
        <mxCell id="Jf8K7NB9ZICqQrIBF7vX-16" value="" style="group" parent="1" vertex="1" connectable="0">
          <mxGeometry x="510" y="300" width="30" height="30" as="geometry" />
        </mxCell>
        <mxCell id="umWT4CQzPr7KXGaEn9dq-20" value="" style="endArrow=diamondThin;endSize=12;html=1;fontColor=#000099;exitX=1;exitY=0;exitDx=0;exitDy=0;endFill=0;dashed=1;entryX=0;entryY=0.5;entryDx=0;entryDy=0;arcSize=0;rounded=0;" parent="Jf8K7NB9ZICqQrIBF7vX-16" source="umWT4CQzPr7KXGaEn9dq-17" target="umWT4CQzPr7KXGaEn9dq-24" edge="1">
          <mxGeometry width="50" height="50" relative="1" as="geometry">
            <mxPoint x="-162" y="65" as="sourcePoint" />
            <mxPoint x="53" y="30" as="targetPoint" />
          </mxGeometry>
        </mxCell>
        <mxCell id="umWT4CQzPr7KXGaEn9dq-21" value="" style="endArrow=diamondThin;endSize=12;html=1;fontColor=#000099;exitX=1;exitY=1;exitDx=0;exitDy=0;endFill=0;dashed=1;entryX=0;entryY=0.5;entryDx=0;entryDy=0;arcSize=0;rounded=0;" parent="Jf8K7NB9ZICqQrIBF7vX-16" source="umWT4CQzPr7KXGaEn9dq-17" target="umWT4CQzPr7KXGaEn9dq-16" edge="1">
          <mxGeometry width="50" height="50" relative="1" as="geometry">
            <mxPoint x="21.606601717798185" y="54.393398282201815" as="sourcePoint" />
            <mxPoint x="53" y="150" as="targetPoint" />
          </mxGeometry>
        </mxCell>
        <mxCell id="umWT4CQzPr7KXGaEn9dq-17" value="&lt;span class=&quot;st&quot;&gt;â¨†&lt;/span&gt;" style="ellipse;whiteSpace=wrap;html=1;aspect=fixed;fontSize=17;" parent="Jf8K7NB9ZICqQrIBF7vX-16" vertex="1">
          <mxGeometry width="30" height="30" as="geometry" />
        </mxCell>
        <mxCell id="Jf8K7NB9ZICqQrIBF7vX-17" value="" style="group" parent="1" vertex="1" connectable="0">
          <mxGeometry x="510" y="380" width="30" height="30" as="geometry" />
        </mxCell>
        <mxCell id="MMTcVOcszVxUp90W63KL-11" value="" style="endArrow=diamondThin;endSize=12;html=1;fontColor=#000099;exitX=1;exitY=0;exitDx=0;exitDy=0;endFill=0;dashed=1;entryX=0;entryY=0.5;entryDx=0;entryDy=0;arcSize=0;rounded=0;" parent="Jf8K7NB9ZICqQrIBF7vX-17" source="MMTcVOcszVxUp90W63KL-10" target="MMTcVOcszVxUp90W63KL-8" edge="1">
          <mxGeometry width="50" height="50" relative="1" as="geometry">
            <mxPoint x="-162" y="215" as="sourcePoint" />
            <mxPoint x="53" y="180" as="targetPoint" />
          </mxGeometry>
        </mxCell>
        <mxCell id="MMTcVOcszVxUp90W63KL-12" value="" style="endArrow=diamondThin;endSize=12;html=1;fontColor=#000099;exitX=1;exitY=1;exitDx=0;exitDy=0;endFill=0;dashed=1;entryX=0;entryY=0.5;entryDx=0;entryDy=0;arcSize=0;rounded=0;" parent="Jf8K7NB9ZICqQrIBF7vX-17" source="MMTcVOcszVxUp90W63KL-10" target="MMTcVOcszVxUp90W63KL-5" edge="1">
          <mxGeometry width="50" height="50" relative="1" as="geometry">
            <mxPoint x="21.606601717798185" y="204.39339828220182" as="sourcePoint" />
            <mxPoint x="53" y="300" as="targetPoint" />
          </mxGeometry>
        </mxCell>
        <mxCell id="MMTcVOcszVxUp90W63KL-10" value="&lt;span class=&quot;st&quot;&gt;â¨†&lt;/span&gt;" style="ellipse;whiteSpace=wrap;html=1;aspect=fixed;fontSize=17;" parent="Jf8K7NB9ZICqQrIBF7vX-17" vertex="1">
          <mxGeometry width="30" height="30" as="geometry" />
        </mxCell>
        <mxCell id="Jf8K7NB9ZICqQrIBF7vX-23" value="" style="endArrow=classic;html=1;exitX=1;exitY=0.5;exitDx=0;exitDy=0;endSize=8;arcSize=0;rounded=0;entryX=0;entryY=0.5;entryDx=0;entryDy=0;" parent="1" source="umWT4CQzPr7KXGaEn9dq-2" target="Jf8K7NB9ZICqQrIBF7vX-28" edge="1">
          <mxGeometry width="50" height="50" relative="1" as="geometry">
            <mxPoint x="220" y="334" as="sourcePoint" />
            <mxPoint x="480" y="709" as="targetPoint" />
            <Array as="points">
              <mxPoint x="300" y="515" />
            </Array>
          </mxGeometry>
        </mxCell>
        <mxCell id="Jf8K7NB9ZICqQrIBF7vX-24" value="&lt;div&gt;dcterms:publisher [1..*]&lt;/div&gt;" style="text;html=1;align=center;verticalAlign=middle;resizable=0;points=[];labelBackgroundColor=#ffffff;" parent="Jf8K7NB9ZICqQrIBF7vX-23" vertex="1" connectable="0">
          <mxGeometry x="-0.1269" relative="1" as="geometry">
            <mxPoint x="118" y="81" as="offset" />
          </mxGeometry>
        </mxCell>
        <mxCell id="Jf8K7NB9ZICqQrIBF7vX-25" value="foaf:Organization" style="rounded=0;whiteSpace=wrap;html=1;snapToPoint=1;points=[[0.1,0],[0.2,0],[0.3,0],[0.4,0],[0.5,0],[0.6,0],[0.7,0],[0.8,0],[0.9,0],[0,0.1],[0,0.3],[0,0.5],[0,0.7],[0,0.9],[0.1,1],[0.2,1],[0.3,1],[0.4,1],[0.5,1],[0.6,1],[0.7,1],[0.8,1],[0.9,1],[1,0.1],[1,0.3],[1,0.5],[1,0.7],[1,0.9]];fillColor=#CCE5FF;" parent="1" vertex="1">
          <mxGeometry x="610" y="520" width="160" height="30" as="geometry" />
        </mxCell>
        <mxCell id="Jf8K7NB9ZICqQrIBF7vX-26" value="foaf:Person" style="rounded=0;whiteSpace=wrap;html=1;snapToPoint=1;points=[[0.1,0],[0.2,0],[0.3,0],[0.4,0],[0.5,0],[0.6,0],[0.7,0],[0.8,0],[0.9,0],[0,0.1],[0,0.3],[0,0.5],[0,0.7],[0,0.9],[0.1,1],[0.2,1],[0.3,1],[0.4,1],[0.5,1],[0.6,1],[0.7,1],[0.8,1],[0.9,1],[1,0.1],[1,0.3],[1,0.5],[1,0.7],[1,0.9]];fillColor=#BDA890;" parent="1" vertex="1">
          <mxGeometry x="610" y="480" width="160" height="30" as="geometry" />
        </mxCell>
        <mxCell id="Jf8K7NB9ZICqQrIBF7vX-27" value="" style="group" parent="1" vertex="1" connectable="0">
          <mxGeometry x="510" y="500" width="30" height="30" as="geometry" />
        </mxCell>
        <mxCell id="Jf8K7NB9ZICqQrIBF7vX-28" value="&lt;span class=&quot;st&quot;&gt;â¨†&lt;/span&gt;" style="ellipse;whiteSpace=wrap;html=1;aspect=fixed;fontSize=17;" parent="Jf8K7NB9ZICqQrIBF7vX-27" vertex="1">
          <mxGeometry width="30" height="30" as="geometry" />
        </mxCell>
        <mxCell id="Jf8K7NB9ZICqQrIBF7vX-29" value="" style="endArrow=diamondThin;endSize=12;html=1;fontColor=#000099;exitX=1;exitY=0;exitDx=0;exitDy=0;endFill=0;dashed=1;entryX=0;entryY=0.5;entryDx=0;entryDy=0;arcSize=0;rounded=0;" parent="1" source="Jf8K7NB9ZICqQrIBF7vX-28" target="Jf8K7NB9ZICqQrIBF7vX-26" edge="1">
          <mxGeometry width="50" height="50" relative="1" as="geometry">
            <mxPoint x="348" y="714" as="sourcePoint" />
            <mxPoint x="563" y="679" as="targetPoint" />
          </mxGeometry>
        </mxCell>
        <mxCell id="Jf8K7NB9ZICqQrIBF7vX-30" value="" style="endArrow=diamondThin;endSize=12;html=1;fontColor=#000099;exitX=1;exitY=1;exitDx=0;exitDy=0;endFill=0;dashed=1;entryX=0;entryY=0.5;entryDx=0;entryDy=0;arcSize=0;rounded=0;" parent="1" source="Jf8K7NB9ZICqQrIBF7vX-28" target="Jf8K7NB9ZICqQrIBF7vX-25" edge="1">
          <mxGeometry width="50" height="50" relative="1" as="geometry">
            <mxPoint x="531.6066017177982" y="703.3933982822018" as="sourcePoint" />
            <mxPoint x="563" y="799" as="targetPoint" />
          </mxGeometry>
        </mxCell>
        <mxCell id="Jf8K7NB9ZICqQrIBF7vX-31" value="" style="endArrow=classic;html=1;exitX=1;exitY=0.5;exitDx=0;exitDy=0;entryX=0;entryY=0.5;entryDx=0;entryDy=0;endSize=8;arcSize=0;rounded=0;" parent="1" source="umWT4CQzPr7KXGaEn9dq-2" target="Jf8K7NB9ZICqQrIBF7vX-33" edge="1">
          <mxGeometry width="50" height="50" relative="1" as="geometry">
            <mxPoint x="220" y="330" as="sourcePoint" />
            <mxPoint x="419" y="540" as="targetPoint" />
            <Array as="points">
              <mxPoint x="300" y="575" />
            </Array>
          </mxGeometry>
        </mxCell>
        <mxCell id="Jf8K7NB9ZICqQrIBF7vX-32" value="&lt;div&gt;dcat:theme [?..?]&lt;/div&gt;" style="text;html=1;align=center;verticalAlign=middle;resizable=0;points=[];labelBackgroundColor=#ffffff;" parent="Jf8K7NB9ZICqQrIBF7vX-31" vertex="1" connectable="0">
          <mxGeometry x="-0.1269" relative="1" as="geometry">
            <mxPoint x="123" y="113" as="offset" />
          </mxGeometry>
        </mxCell>
        <mxCell id="Jf8K7NB9ZICqQrIBF7vX-33" value="skos:Concept (probs)" style="rounded=0;whiteSpace=wrap;html=1;snapToPoint=1;points=[[0.1,0],[0.2,0],[0.3,0],[0.4,0],[0.5,0],[0.6,0],[0.7,0],[0.8,0],[0.9,0],[0,0.1],[0,0.3],[0,0.5],[0,0.7],[0,0.9],[0.1,1],[0.2,1],[0.3,1],[0.4,1],[0.5,1],[0.6,1],[0.7,1],[0.8,1],[0.9,1],[1,0.1],[1,0.3],[1,0.5],[1,0.7],[1,0.9]];" parent="1" vertex="1">
          <mxGeometry x="510" y="560" width="160" height="30" as="geometry" />
        </mxCell>
        <mxCell id="Jf8K7NB9ZICqQrIBF7vX-34" value="" style="endArrow=classic;html=1;exitX=1;exitY=0.5;exitDx=0;exitDy=0;entryX=0;entryY=0.5;entryDx=0;entryDy=0;endSize=8;arcSize=0;rounded=0;" parent="1" source="umWT4CQzPr7KXGaEn9dq-2" target="Jf8K7NB9ZICqQrIBF7vX-36" edge="1">
          <mxGeometry width="50" height="50" relative="1" as="geometry">
            <mxPoint x="220" y="255" as="sourcePoint" />
            <mxPoint x="419" y="580" as="targetPoint" />
            <Array as="points">
              <mxPoint x="300" y="615" />
            </Array>
          </mxGeometry>
        </mxCell>
        <mxCell id="Jf8K7NB9ZICqQrIBF7vX-35" value="&lt;div&gt;dcterms:type [1..1]&lt;/div&gt;" style="text;html=1;align=center;verticalAlign=middle;resizable=0;points=[];labelBackgroundColor=#ffffff;" parent="Jf8K7NB9ZICqQrIBF7vX-34" vertex="1" connectable="0">
          <mxGeometry x="-0.1269" relative="1" as="geometry">
            <mxPoint x="125" y="135" as="offset" />
          </mxGeometry>
        </mxCell>
        <mxCell id="Jf8K7NB9ZICqQrIBF7vX-36" value="rdfs:Class" style="rounded=0;whiteSpace=wrap;html=1;snapToPoint=1;points=[[0.1,0],[0.2,0],[0.3,0],[0.4,0],[0.5,0],[0.6,0],[0.7,0],[0.8,0],[0.9,0],[0,0.1],[0,0.3],[0,0.5],[0,0.7],[0,0.9],[0.1,1],[0.2,1],[0.3,1],[0.4,1],[0.5,1],[0.6,1],[0.7,1],[0.8,1],[0.9,1],[1,0.1],[1,0.3],[1,0.5],[1,0.7],[1,0.9]];" parent="1" vertex="1">
          <mxGeometry x="510" y="600" width="160" height="30" as="geometry" />
        </mxCell>
        <mxCell id="Jf8K7NB9ZICqQrIBF7vX-37" value="" style="endArrow=classic;html=1;exitX=1;exitY=0.5;exitDx=0;exitDy=0;entryX=0;entryY=0.5;entryDx=0;entryDy=0;endSize=8;arcSize=0;rounded=0;" parent="1" source="umWT4CQzPr7KXGaEn9dq-2" target="Jf8K7NB9ZICqQrIBF7vX-39" edge="1">
          <mxGeometry width="50" height="50" relative="1" as="geometry">
            <mxPoint x="220" y="254" as="sourcePoint" />
            <mxPoint x="419" y="619" as="targetPoint" />
            <Array as="points">
              <mxPoint x="300" y="655" />
            </Array>
          </mxGeometry>
        </mxCell>
        <mxCell id="Jf8K7NB9ZICqQrIBF7vX-38" value="&lt;div&gt;dcat:landingPage [1..*]&lt;/div&gt;" style="text;html=1;align=center;verticalAlign=middle;resizable=0;points=[];labelBackgroundColor=#ffffff;" parent="Jf8K7NB9ZICqQrIBF7vX-37" vertex="1" connectable="0">
          <mxGeometry x="-0.1269" relative="1" as="geometry">
            <mxPoint x="127" y="157" as="offset" />
          </mxGeometry>
        </mxCell>
        <mxCell id="Jf8K7NB9ZICqQrIBF7vX-39" value="foaf:Document" style="rounded=0;whiteSpace=wrap;html=1;snapToPoint=1;points=[[0.1,0],[0.2,0],[0.3,0],[0.4,0],[0.5,0],[0.6,0],[0.7,0],[0.8,0],[0.9,0],[0,0.1],[0,0.3],[0,0.5],[0,0.7],[0,0.9],[0.1,1],[0.2,1],[0.3,1],[0.4,1],[0.5,1],[0.6,1],[0.7,1],[0.8,1],[0.9,1],[1,0.1],[1,0.3],[1,0.5],[1,0.7],[1,0.9]];" parent="1" vertex="1">
          <mxGeometry x="510" y="640" width="160" height="30" as="geometry" />
        </mxCell>
        <mxCell id="Jf8K7NB9ZICqQrIBF7vX-40" value="" style="endArrow=classic;html=1;exitX=1;exitY=0.5;exitDx=0;exitDy=0;entryX=0;entryY=0.5;entryDx=0;entryDy=0;endSize=8;arcSize=0;rounded=0;" parent="1" source="umWT4CQzPr7KXGaEn9dq-2" target="Jf8K7NB9ZICqQrIBF7vX-42" edge="1">
          <mxGeometry width="50" height="50" relative="1" as="geometry">
            <mxPoint x="220" y="256" as="sourcePoint" />
            <mxPoint x="419" y="660" as="targetPoint" />
            <Array as="points">
              <mxPoint x="300" y="695" />
            </Array>
          </mxGeometry>
        </mxCell>
        <mxCell id="Jf8K7NB9ZICqQrIBF7vX-41" value="&lt;div&gt;dcterms:license [1..1]&lt;/div&gt;" style="text;html=1;align=center;verticalAlign=middle;resizable=0;points=[];labelBackgroundColor=#ffffff;" parent="Jf8K7NB9ZICqQrIBF7vX-40" vertex="1" connectable="0">
          <mxGeometry x="-0.1269" relative="1" as="geometry">
            <mxPoint x="129" y="180" as="offset" />
          </mxGeometry>
        </mxCell>
        <mxCell id="Jf8K7NB9ZICqQrIBF7vX-42" value="dcterms:LicenseDocument" style="rounded=0;whiteSpace=wrap;html=1;snapToPoint=1;points=[[0.1,0],[0.2,0],[0.3,0],[0.4,0],[0.5,0],[0.6,0],[0.7,0],[0.8,0],[0.9,0],[0,0.1],[0,0.3],[0,0.5],[0,0.7],[0,0.9],[0.1,1],[0.2,1],[0.3,1],[0.4,1],[0.5,1],[0.6,1],[0.7,1],[0.8,1],[0.9,1],[1,0.1],[1,0.3],[1,0.5],[1,0.7],[1,0.9]];" parent="1" vertex="1">
          <mxGeometry x="510" y="680" width="160" height="30" as="geometry" />
        </mxCell>
        <mxCell id="Jf8K7NB9ZICqQrIBF7vX-43" value="" style="endArrow=classic;html=1;exitX=1;exitY=0.5;exitDx=0;exitDy=0;entryX=0;entryY=0.5;entryDx=0;entryDy=0;endSize=8;arcSize=0;rounded=0;" parent="1" source="umWT4CQzPr7KXGaEn9dq-2" target="Jf8K7NB9ZICqQrIBF7vX-45" edge="1">
          <mxGeometry width="50" height="50" relative="1" as="geometry">
            <mxPoint x="220" y="255" as="sourcePoint" />
            <mxPoint x="419" y="700" as="targetPoint" />
            <Array as="points">
              <mxPoint x="300" y="735" />
            </Array>
          </mxGeometry>
        </mxCell>
        <mxCell id="Jf8K7NB9ZICqQrIBF7vX-44" value="&lt;div&gt;dcterms:rights [0..1]&lt;/div&gt;" style="text;html=1;align=center;verticalAlign=middle;resizable=0;points=[];labelBackgroundColor=#ffffff;" parent="Jf8K7NB9ZICqQrIBF7vX-43" vertex="1" connectable="0">
          <mxGeometry x="-0.1269" relative="1" as="geometry">
            <mxPoint x="130" y="202" as="offset" />
          </mxGeometry>
        </mxCell>
        <mxCell id="Jf8K7NB9ZICqQrIBF7vX-45" value="dcterms:RightsStatement" style="rounded=0;whiteSpace=wrap;html=1;snapToPoint=1;points=[[0.1,0],[0.2,0],[0.3,0],[0.4,0],[0.5,0],[0.6,0],[0.7,0],[0.8,0],[0.9,0],[0,0.1],[0,0.3],[0,0.5],[0,0.7],[0,0.9],[0.1,1],[0.2,1],[0.3,1],[0.4,1],[0.5,1],[0.6,1],[0.7,1],[0.8,1],[0.9,1],[1,0.1],[1,0.3],[1,0.5],[1,0.7],[1,0.9]];" parent="1" vertex="1">
          <mxGeometry x="510" y="720" width="160" height="30" as="geometry" />
        </mxCell>
        <mxCell id="Jf8K7NB9ZICqQrIBF7vX-46" value="" style="endArrow=classic;html=1;exitX=1;exitY=0.5;exitDx=0;exitDy=0;entryX=0;entryY=0.5;entryDx=0;entryDy=0;endSize=8;arcSize=0;rounded=0;" parent="1" source="umWT4CQzPr7KXGaEn9dq-2" target="SjGbqMPoIrOMk5xAmUnZ-4" edge="1">
          <mxGeometry width="50" height="50" relative="1" as="geometry">
            <mxPoint x="220" y="255" as="sourcePoint" />
            <mxPoint x="510" y="735" as="targetPoint" />
            <Array as="points">
              <mxPoint x="300" y="815" />
            </Array>
          </mxGeometry>
        </mxCell>
        <mxCell id="Jf8K7NB9ZICqQrIBF7vX-47" value="&lt;div&gt;dcterms:isReferencedBy [0..*]&lt;/div&gt;" style="text;html=1;align=center;verticalAlign=middle;resizable=0;points=[];labelBackgroundColor=#ffffff;" parent="Jf8K7NB9ZICqQrIBF7vX-46" vertex="1" connectable="0">
          <mxGeometry x="-0.1269" relative="1" as="geometry">
            <mxPoint x="132" y="246" as="offset" />
          </mxGeometry>
        </mxCell>
        <mxCell id="SjGbqMPoIrOMk5xAmUnZ-1" value="prov:Entity" style="rounded=0;whiteSpace=wrap;html=1;snapToPoint=1;points=[[0.1,0],[0.2,0],[0.3,0],[0.4,0],[0.5,0],[0.6,0],[0.7,0],[0.8,0],[0.9,0],[0,0.1],[0,0.3],[0,0.5],[0,0.7],[0,0.9],[0.1,1],[0.2,1],[0.3,1],[0.4,1],[0.5,1],[0.6,1],[0.7,1],[0.8,1],[0.9,1],[1,0.1],[1,0.3],[1,0.5],[1,0.7],[1,0.9]];fillColor=#E5CCFF;" parent="1" vertex="1">
          <mxGeometry x="610" y="800" width="160" height="30" as="geometry" />
        </mxCell>
        <mxCell id="SjGbqMPoIrOMk5xAmUnZ-2" value="dcat:Resource" style="rounded=0;whiteSpace=wrap;html=1;snapToPoint=1;points=[[0.1,0],[0.2,0],[0.3,0],[0.4,0],[0.5,0],[0.6,0],[0.7,0],[0.8,0],[0.9,0],[0,0.1],[0,0.3],[0,0.5],[0,0.7],[0,0.9],[0.1,1],[0.2,1],[0.3,1],[0.4,1],[0.5,1],[0.6,1],[0.7,1],[0.8,1],[0.9,1],[1,0.1],[1,0.3],[1,0.5],[1,0.7],[1,0.9]];fillColor=#CCFFCC;" parent="1" vertex="1">
          <mxGeometry x="610" y="760" width="160" height="30" as="geometry" />
        </mxCell>
        <mxCell id="SjGbqMPoIrOMk5xAmUnZ-3" value="" style="group" parent="1" vertex="1" connectable="0">
          <mxGeometry x="510" y="800" width="30" height="30" as="geometry" />
        </mxCell>
        <mxCell id="SjGbqMPoIrOMk5xAmUnZ-4" value="&lt;span class=&quot;st&quot;&gt;â¨†&lt;/span&gt;" style="ellipse;whiteSpace=wrap;html=1;aspect=fixed;fontSize=17;" parent="SjGbqMPoIrOMk5xAmUnZ-3" vertex="1">
          <mxGeometry width="30" height="30" as="geometry" />
        </mxCell>
        <mxCell id="SjGbqMPoIrOMk5xAmUnZ-5" value="" style="endArrow=diamondThin;endSize=12;html=1;fontColor=#000099;exitX=1;exitY=0;exitDx=0;exitDy=0;endFill=0;dashed=1;entryX=0;entryY=0.5;entryDx=0;entryDy=0;arcSize=0;rounded=0;" parent="1" source="SjGbqMPoIrOMk5xAmUnZ-4" target="SjGbqMPoIrOMk5xAmUnZ-2" edge="1">
          <mxGeometry width="50" height="50" relative="1" as="geometry">
            <mxPoint x="348" y="994" as="sourcePoint" />
            <mxPoint x="563" y="959" as="targetPoint" />
          </mxGeometry>
        </mxCell>
        <mxCell id="SjGbqMPoIrOMk5xAmUnZ-6" value="" style="endArrow=diamondThin;endSize=12;html=1;fontColor=#000099;exitX=1;exitY=0.5;exitDx=0;exitDy=0;endFill=0;dashed=1;entryX=0;entryY=0.5;entryDx=0;entryDy=0;arcSize=0;rounded=0;" parent="1" source="SjGbqMPoIrOMk5xAmUnZ-4" target="SjGbqMPoIrOMk5xAmUnZ-1" edge="1">
          <mxGeometry width="50" height="50" relative="1" as="geometry">
            <mxPoint x="531.6066017177982" y="983.3933982822018" as="sourcePoint" />
            <mxPoint x="563" y="1079" as="targetPoint" />
          </mxGeometry>
        </mxCell>
        <mxCell id="SjGbqMPoIrOMk5xAmUnZ-16" value="fabio:Expression" style="rounded=0;whiteSpace=wrap;html=1;snapToPoint=1;points=[[0.1,0],[0.2,0],[0.3,0],[0.4,0],[0.5,0],[0.6,0],[0.7,0],[0.8,0],[0.9,0],[0,0.1],[0,0.3],[0,0.5],[0,0.7],[0,0.9],[0.1,1],[0.2,1],[0.3,1],[0.4,1],[0.5,1],[0.6,1],[0.7,1],[0.8,1],[0.9,1],[1,0.1],[1,0.3],[1,0.5],[1,0.7],[1,0.9]];fillColor=#CCCCFF;" parent="1" vertex="1">
          <mxGeometry x="610" y="840" width="160" height="30" as="geometry" />
        </mxCell>
        <mxCell id="SjGbqMPoIrOMk5xAmUnZ-17" value="" style="endArrow=diamondThin;endSize=12;html=1;fontColor=#000099;exitX=1;exitY=1;exitDx=0;exitDy=0;endFill=0;dashed=1;entryX=0;entryY=0.5;entryDx=0;entryDy=0;arcSize=0;rounded=0;" parent="1" source="SjGbqMPoIrOMk5xAmUnZ-4" target="SjGbqMPoIrOMk5xAmUnZ-16" edge="1">
          <mxGeometry width="50" height="50" relative="1" as="geometry">
            <mxPoint x="536" y="846" as="sourcePoint" />
            <mxPoint x="563" y="1119" as="targetPoint" />
          </mxGeometry>
        </mxCell>
        <mxCell id="SjGbqMPoIrOMk5xAmUnZ-18" value="" style="endArrow=classic;html=1;exitX=1;exitY=0.5;exitDx=0;exitDy=0;entryX=0;entryY=0.5;entryDx=0;entryDy=0;endSize=8;arcSize=0;rounded=0;" parent="1" source="umWT4CQzPr7KXGaEn9dq-2" target="SjGbqMPoIrOMk5xAmUnZ-20" edge="1">
          <mxGeometry width="50" height="50" relative="1" as="geometry">
            <mxPoint x="220" y="535" as="sourcePoint" />
            <mxPoint x="419" y="860" as="targetPoint" />
            <Array as="points">
              <mxPoint x="300" y="895" />
            </Array>
          </mxGeometry>
        </mxCell>
        <mxCell id="SjGbqMPoIrOMk5xAmUnZ-19" value="&lt;div&gt;adms:status [1..1]&lt;/div&gt;" style="text;html=1;align=center;verticalAlign=middle;resizable=0;points=[];labelBackgroundColor=#ffffff;" parent="SjGbqMPoIrOMk5xAmUnZ-18" vertex="1" connectable="0">
          <mxGeometry x="-0.1269" relative="1" as="geometry">
            <mxPoint x="134" y="292" as="offset" />
          </mxGeometry>
        </mxCell>
        <mxCell id="SjGbqMPoIrOMk5xAmUnZ-20" value="skos:Concept" style="rounded=0;whiteSpace=wrap;html=1;snapToPoint=1;points=[[0.1,0],[0.2,0],[0.3,0],[0.4,0],[0.5,0],[0.6,0],[0.7,0],[0.8,0],[0.9,0],[0,0.1],[0,0.3],[0,0.5],[0,0.7],[0,0.9],[0.1,1],[0.2,1],[0.3,1],[0.4,1],[0.5,1],[0.6,1],[0.7,1],[0.8,1],[0.9,1],[1,0.1],[1,0.3],[1,0.5],[1,0.7],[1,0.9]];" parent="1" vertex="1">
          <mxGeometry x="510" y="880" width="160" height="30" as="geometry" />
        </mxCell>
        <mxCell id="SjGbqMPoIrOMk5xAmUnZ-24" value="" style="endArrow=classic;html=1;exitX=1;exitY=0.5;exitDx=0;exitDy=0;endSize=8;arcSize=0;rounded=0;entryX=0;entryY=0.5;entryDx=0;entryDy=0;" parent="1" source="umWT4CQzPr7KXGaEn9dq-2" target="SjGbqMPoIrOMk5xAmUnZ-29" edge="1">
          <mxGeometry width="50" height="50" relative="1" as="geometry">
            <mxPoint x="220" y="655" as="sourcePoint" />
            <mxPoint x="480" y="1149" as="targetPoint" />
            <Array as="points">
              <mxPoint x="300" y="995" />
            </Array>
          </mxGeometry>
        </mxCell>
        <mxCell id="SjGbqMPoIrOMk5xAmUnZ-25" value="&lt;div&gt;rdau:P60402 [1..1]&lt;/div&gt;" style="text;html=1;align=center;verticalAlign=middle;resizable=0;points=[];labelBackgroundColor=#ffffff;" parent="SjGbqMPoIrOMk5xAmUnZ-24" vertex="1" connectable="0">
          <mxGeometry x="-0.1269" relative="1" as="geometry">
            <mxPoint x="135" y="347" as="offset" />
          </mxGeometry>
        </mxCell>
        <mxCell id="SjGbqMPoIrOMk5xAmUnZ-26" value="foaf:Organization" style="rounded=0;whiteSpace=wrap;html=1;snapToPoint=1;points=[[0.1,0],[0.2,0],[0.3,0],[0.4,0],[0.5,0],[0.6,0],[0.7,0],[0.8,0],[0.9,0],[0,0.1],[0,0.3],[0,0.5],[0,0.7],[0,0.9],[0.1,1],[0.2,1],[0.3,1],[0.4,1],[0.5,1],[0.6,1],[0.7,1],[0.8,1],[0.9,1],[1,0.1],[1,0.3],[1,0.5],[1,0.7],[1,0.9]];fillColor=#CCE5FF;" parent="1" vertex="1">
          <mxGeometry x="610" y="1000" width="160" height="30" as="geometry" />
        </mxCell>
        <mxCell id="SjGbqMPoIrOMk5xAmUnZ-27" value="foaf:Person" style="rounded=0;whiteSpace=wrap;html=1;snapToPoint=1;points=[[0.1,0],[0.2,0],[0.3,0],[0.4,0],[0.5,0],[0.6,0],[0.7,0],[0.8,0],[0.9,0],[0,0.1],[0,0.3],[0,0.5],[0,0.7],[0,0.9],[0.1,1],[0.2,1],[0.3,1],[0.4,1],[0.5,1],[0.6,1],[0.7,1],[0.8,1],[0.9,1],[1,0.1],[1,0.3],[1,0.5],[1,0.7],[1,0.9]];fillColor=#BDA890;" parent="1" vertex="1">
          <mxGeometry x="610" y="960" width="160" height="30" as="geometry" />
        </mxCell>
        <mxCell id="SjGbqMPoIrOMk5xAmUnZ-28" value="" style="group" parent="1" vertex="1" connectable="0">
          <mxGeometry x="510" y="980" width="30" height="30" as="geometry" />
        </mxCell>
        <mxCell id="SjGbqMPoIrOMk5xAmUnZ-29" value="&lt;span class=&quot;st&quot;&gt;â¨†&lt;/span&gt;" style="ellipse;whiteSpace=wrap;html=1;aspect=fixed;fontSize=17;" parent="SjGbqMPoIrOMk5xAmUnZ-28" vertex="1">
          <mxGeometry width="30" height="30" as="geometry" />
        </mxCell>
        <mxCell id="SjGbqMPoIrOMk5xAmUnZ-30" value="" style="endArrow=diamondThin;endSize=12;html=1;fontColor=#000099;exitX=1;exitY=0;exitDx=0;exitDy=0;endFill=0;dashed=1;entryX=0;entryY=0.5;entryDx=0;entryDy=0;arcSize=0;rounded=0;" parent="1" source="SjGbqMPoIrOMk5xAmUnZ-29" target="SjGbqMPoIrOMk5xAmUnZ-27" edge="1">
          <mxGeometry width="50" height="50" relative="1" as="geometry">
            <mxPoint x="348" y="1194" as="sourcePoint" />
            <mxPoint x="563" y="1159" as="targetPoint" />
          </mxGeometry>
        </mxCell>
        <mxCell id="SjGbqMPoIrOMk5xAmUnZ-31" value="" style="endArrow=diamondThin;endSize=12;html=1;fontColor=#000099;exitX=1;exitY=1;exitDx=0;exitDy=0;endFill=0;dashed=1;entryX=0;entryY=0.5;entryDx=0;entryDy=0;arcSize=0;rounded=0;" parent="1" source="SjGbqMPoIrOMk5xAmUnZ-29" target="SjGbqMPoIrOMk5xAmUnZ-26" edge="1">
          <mxGeometry width="50" height="50" relative="1" as="geometry">
            <mxPoint x="531.6066017177982" y="1183.3933982822018" as="sourcePoint" />
            <mxPoint x="563" y="1279" as="targetPoint" />
          </mxGeometry>
        </mxCell>
        <mxCell id="SjGbqMPoIrOMk5xAmUnZ-32" value="" style="endArrow=classic;html=1;exitX=1;exitY=0.5;exitDx=0;exitDy=0;endSize=8;arcSize=0;rounded=0;entryX=0;entryY=0.5;entryDx=0;entryDy=0;" parent="1" source="umWT4CQzPr7KXGaEn9dq-2" target="SjGbqMPoIrOMk5xAmUnZ-37" edge="1">
          <mxGeometry width="50" height="50" relative="1" as="geometry">
            <mxPoint x="220" y="735" as="sourcePoint" />
            <mxPoint x="480" y="1229" as="targetPoint" />
            <Array as="points">
              <mxPoint x="300" y="1075" />
            </Array>
          </mxGeometry>
        </mxCell>
        <mxCell id="SjGbqMPoIrOMk5xAmUnZ-33" value="&lt;div&gt;rdau:P60400 [1..1]&lt;/div&gt;" style="text;html=1;align=center;verticalAlign=middle;resizable=0;points=[];labelBackgroundColor=#ffffff;" parent="SjGbqMPoIrOMk5xAmUnZ-32" vertex="1" connectable="0">
          <mxGeometry x="-0.1269" relative="1" as="geometry">
            <mxPoint x="136" y="393" as="offset" />
          </mxGeometry>
        </mxCell>
        <mxCell id="SjGbqMPoIrOMk5xAmUnZ-34" value="foaf:Organization" style="rounded=0;whiteSpace=wrap;html=1;snapToPoint=1;points=[[0.1,0],[0.2,0],[0.3,0],[0.4,0],[0.5,0],[0.6,0],[0.7,0],[0.8,0],[0.9,0],[0,0.1],[0,0.3],[0,0.5],[0,0.7],[0,0.9],[0.1,1],[0.2,1],[0.3,1],[0.4,1],[0.5,1],[0.6,1],[0.7,1],[0.8,1],[0.9,1],[1,0.1],[1,0.3],[1,0.5],[1,0.7],[1,0.9]];fillColor=#CCE5FF;" parent="1" vertex="1">
          <mxGeometry x="610" y="1080" width="160" height="30" as="geometry" />
        </mxCell>
        <mxCell id="SjGbqMPoIrOMk5xAmUnZ-35" value="foaf:Person" style="rounded=0;whiteSpace=wrap;html=1;snapToPoint=1;points=[[0.1,0],[0.2,0],[0.3,0],[0.4,0],[0.5,0],[0.6,0],[0.7,0],[0.8,0],[0.9,0],[0,0.1],[0,0.3],[0,0.5],[0,0.7],[0,0.9],[0.1,1],[0.2,1],[0.3,1],[0.4,1],[0.5,1],[0.6,1],[0.7,1],[0.8,1],[0.9,1],[1,0.1],[1,0.3],[1,0.5],[1,0.7],[1,0.9]];fillColor=#BDA890;" parent="1" vertex="1">
          <mxGeometry x="610" y="1040" width="160" height="30" as="geometry" />
        </mxCell>
        <mxCell id="SjGbqMPoIrOMk5xAmUnZ-36" value="" style="group" parent="1" vertex="1" connectable="0">
          <mxGeometry x="510" y="1060" width="30" height="30" as="geometry" />
        </mxCell>
        <mxCell id="SjGbqMPoIrOMk5xAmUnZ-37" value="&lt;span class=&quot;st&quot;&gt;â¨†&lt;/span&gt;" style="ellipse;whiteSpace=wrap;html=1;aspect=fixed;fontSize=17;" parent="SjGbqMPoIrOMk5xAmUnZ-36" vertex="1">
          <mxGeometry width="30" height="30" as="geometry" />
        </mxCell>
        <mxCell id="SjGbqMPoIrOMk5xAmUnZ-38" value="" style="endArrow=diamondThin;endSize=12;html=1;fontColor=#000099;exitX=1;exitY=0;exitDx=0;exitDy=0;endFill=0;dashed=1;entryX=0;entryY=0.5;entryDx=0;entryDy=0;arcSize=0;rounded=0;" parent="1" source="SjGbqMPoIrOMk5xAmUnZ-37" target="SjGbqMPoIrOMk5xAmUnZ-35" edge="1">
          <mxGeometry width="50" height="50" relative="1" as="geometry">
            <mxPoint x="348" y="1274" as="sourcePoint" />
            <mxPoint x="563" y="1239" as="targetPoint" />
          </mxGeometry>
        </mxCell>
        <mxCell id="SjGbqMPoIrOMk5xAmUnZ-39" value="" style="endArrow=diamondThin;endSize=12;html=1;fontColor=#000099;exitX=1;exitY=1;exitDx=0;exitDy=0;endFill=0;dashed=1;entryX=0;entryY=0.5;entryDx=0;entryDy=0;arcSize=0;rounded=0;" parent="1" source="SjGbqMPoIrOMk5xAmUnZ-37" target="SjGbqMPoIrOMk5xAmUnZ-34" edge="1">
          <mxGeometry width="50" height="50" relative="1" as="geometry">
            <mxPoint x="531.6066017177982" y="1263.3933982822018" as="sourcePoint" />
            <mxPoint x="563" y="1359" as="targetPoint" />
          </mxGeometry>
        </mxCell>
        <mxCell id="SjGbqMPoIrOMk5xAmUnZ-40" value="" style="endArrow=classic;html=1;exitX=1;exitY=0.5;exitDx=0;exitDy=0;endSize=8;arcSize=0;rounded=0;entryX=0;entryY=0.5;entryDx=0;entryDy=0;" parent="1" source="umWT4CQzPr7KXGaEn9dq-2" target="SjGbqMPoIrOMk5xAmUnZ-45" edge="1">
          <mxGeometry width="50" height="50" relative="1" as="geometry">
            <mxPoint x="220" y="815" as="sourcePoint" />
            <mxPoint x="480" y="1309" as="targetPoint" />
            <Array as="points">
              <mxPoint x="300" y="1155" />
            </Array>
          </mxGeometry>
        </mxCell>
        <mxCell id="SjGbqMPoIrOMk5xAmUnZ-41" value="&lt;div&gt;dcterms:contributor [0..*]&lt;/div&gt;" style="text;html=1;align=center;verticalAlign=middle;resizable=0;points=[];labelBackgroundColor=#ffffff;" parent="SjGbqMPoIrOMk5xAmUnZ-40" vertex="1" connectable="0">
          <mxGeometry x="-0.1269" relative="1" as="geometry">
            <mxPoint x="137" y="438" as="offset" />
          </mxGeometry>
        </mxCell>
        <mxCell id="SjGbqMPoIrOMk5xAmUnZ-42" value="foaf:Organization" style="rounded=0;whiteSpace=wrap;html=1;snapToPoint=1;points=[[0.1,0],[0.2,0],[0.3,0],[0.4,0],[0.5,0],[0.6,0],[0.7,0],[0.8,0],[0.9,0],[0,0.1],[0,0.3],[0,0.5],[0,0.7],[0,0.9],[0.1,1],[0.2,1],[0.3,1],[0.4,1],[0.5,1],[0.6,1],[0.7,1],[0.8,1],[0.9,1],[1,0.1],[1,0.3],[1,0.5],[1,0.7],[1,0.9]];fillColor=#CCE5FF;" parent="1" vertex="1">
          <mxGeometry x="610" y="1160" width="160" height="30" as="geometry" />
        </mxCell>
        <mxCell id="SjGbqMPoIrOMk5xAmUnZ-43" value="foaf:Person" style="rounded=0;whiteSpace=wrap;html=1;snapToPoint=1;points=[[0.1,0],[0.2,0],[0.3,0],[0.4,0],[0.5,0],[0.6,0],[0.7,0],[0.8,0],[0.9,0],[0,0.1],[0,0.3],[0,0.5],[0,0.7],[0,0.9],[0.1,1],[0.2,1],[0.3,1],[0.4,1],[0.5,1],[0.6,1],[0.7,1],[0.8,1],[0.9,1],[1,0.1],[1,0.3],[1,0.5],[1,0.7],[1,0.9]];fillColor=#BDA890;" parent="1" vertex="1">
          <mxGeometry x="610" y="1120" width="160" height="30" as="geometry" />
        </mxCell>
        <mxCell id="SjGbqMPoIrOMk5xAmUnZ-44" value="" style="group" parent="1" vertex="1" connectable="0">
          <mxGeometry x="510" y="1140" width="30" height="30" as="geometry" />
        </mxCell>
        <mxCell id="SjGbqMPoIrOMk5xAmUnZ-45" value="&lt;span class=&quot;st&quot;&gt;â¨†&lt;/span&gt;" style="ellipse;whiteSpace=wrap;html=1;aspect=fixed;fontSize=17;" parent="SjGbqMPoIrOMk5xAmUnZ-44" vertex="1">
          <mxGeometry width="30" height="30" as="geometry" />
        </mxCell>
        <mxCell id="SjGbqMPoIrOMk5xAmUnZ-46" value="" style="endArrow=diamondThin;endSize=12;html=1;fontColor=#000099;exitX=1;exitY=0;exitDx=0;exitDy=0;endFill=0;dashed=1;entryX=0;entryY=0.5;entryDx=0;entryDy=0;arcSize=0;rounded=0;" parent="1" source="SjGbqMPoIrOMk5xAmUnZ-45" target="SjGbqMPoIrOMk5xAmUnZ-43" edge="1">
          <mxGeometry width="50" height="50" relative="1" as="geometry">
            <mxPoint x="348" y="1354" as="sourcePoint" />
            <mxPoint x="563" y="1319" as="targetPoint" />
          </mxGeometry>
        </mxCell>
        <mxCell id="SjGbqMPoIrOMk5xAmUnZ-47" value="" style="endArrow=diamondThin;endSize=12;html=1;fontColor=#000099;exitX=1;exitY=1;exitDx=0;exitDy=0;endFill=0;dashed=1;entryX=0;entryY=0.5;entryDx=0;entryDy=0;arcSize=0;rounded=0;" parent="1" source="SjGbqMPoIrOMk5xAmUnZ-45" target="SjGbqMPoIrOMk5xAmUnZ-42" edge="1">
          <mxGeometry width="50" height="50" relative="1" as="geometry">
            <mxPoint x="531.6066017177982" y="1343.3933982822018" as="sourcePoint" />
            <mxPoint x="563" y="1439" as="targetPoint" />
          </mxGeometry>
        </mxCell>
        <mxCell id="SjGbqMPoIrOMk5xAmUnZ-48" value="" style="endArrow=classic;html=1;exitX=1;exitY=0.5;exitDx=0;exitDy=0;entryX=0;entryY=0.5;entryDx=0;entryDy=0;endSize=8;arcSize=0;rounded=0;" parent="1" source="umWT4CQzPr7KXGaEn9dq-2" target="SjGbqMPoIrOMk5xAmUnZ-50" edge="1">
          <mxGeometry width="50" height="50" relative="1" as="geometry">
            <mxPoint x="220" y="495" as="sourcePoint" />
            <mxPoint x="419" y="1140" as="targetPoint" />
            <Array as="points">
              <mxPoint x="300" y="1215" />
            </Array>
          </mxGeometry>
        </mxCell>
        <mxCell id="SjGbqMPoIrOMk5xAmUnZ-49" value="&lt;div&gt;geodcatap:topicCategory [1..*]&lt;/div&gt;" style="text;html=1;align=center;verticalAlign=middle;resizable=0;points=[];labelBackgroundColor=#ffffff;" parent="SjGbqMPoIrOMk5xAmUnZ-48" vertex="1" connectable="0">
          <mxGeometry x="-0.1269" relative="1" as="geometry">
            <mxPoint x="137" y="472" as="offset" />
          </mxGeometry>
        </mxCell>
        <mxCell id="SjGbqMPoIrOMk5xAmUnZ-50" value="skos:Concept" style="rounded=0;whiteSpace=wrap;html=1;snapToPoint=1;points=[[0.1,0],[0.2,0],[0.3,0],[0.4,0],[0.5,0],[0.6,0],[0.7,0],[0.8,0],[0.9,0],[0,0.1],[0,0.3],[0,0.5],[0,0.7],[0,0.9],[0.1,1],[0.2,1],[0.3,1],[0.4,1],[0.5,1],[0.6,1],[0.7,1],[0.8,1],[0.9,1],[1,0.1],[1,0.3],[1,0.5],[1,0.7],[1,0.9]];" parent="1" vertex="1">
          <mxGeometry x="510" y="1200" width="160" height="30" as="geometry" />
        </mxCell>
        <mxCell id="SjGbqMPoIrOMk5xAmUnZ-15" value="prov:Entity" style="rounded=0;whiteSpace=wrap;html=1;snapToPoint=1;points=[[0.1,0],[0.2,0],[0.3,0],[0.4,0],[0.5,0],[0.6,0],[0.7,0],[0.8,0],[0.9,0],[0,0.1],[0,0.3],[0,0.5],[0,0.7],[0,0.9],[0.1,1],[0.2,1],[0.3,1],[0.4,1],[0.5,1],[0.6,1],[0.7,1],[0.8,1],[0.9,1],[1,0.1],[1,0.3],[1,0.5],[1,0.7],[1,0.9]];fillColor=#E5CCFF;" parent="1" vertex="1">
          <mxGeometry x="-150" y="200" width="100" height="30" as="geometry" />
        </mxCell>
        <mxCell id="1unsUa5NZZKn3KWUAOsR-2" value="fabio:Expression" style="rounded=0;whiteSpace=wrap;html=1;snapToPoint=1;points=[[0.1,0],[0.2,0],[0.3,0],[0.4,0],[0.5,0],[0.6,0],[0.7,0],[0.8,0],[0.9,0],[0,0.1],[0,0.3],[0,0.5],[0,0.7],[0,0.9],[0.1,1],[0.2,1],[0.3,1],[0.4,1],[0.5,1],[0.6,1],[0.7,1],[0.8,1],[0.9,1],[1,0.1],[1,0.3],[1,0.5],[1,0.7],[1,0.9]];fillColor=#CCCCFF;" parent="1" vertex="1">
          <mxGeometry x="-290" y="200" width="100" height="30" as="geometry" />
        </mxCell>
        <mxCell id="hFQ5mz163Smq80OQc8B4-1" value="" style="endArrow=classic;html=1;exitX=1;exitY=0.5;exitDx=0;exitDy=0;entryX=0;entryY=0.5;entryDx=0;entryDy=0;endSize=8;arcSize=0;rounded=0;" parent="1" source="umWT4CQzPr7KXGaEn9dq-2" target="hFQ5mz163Smq80OQc8B4-3" edge="1">
          <mxGeometry width="50" height="50" relative="1" as="geometry">
            <mxPoint x="220" y="-65" as="sourcePoint" />
            <mxPoint x="419" y="1065" as="targetPoint" />
            <Array as="points">
              <mxPoint x="300" y="935" />
            </Array>
          </mxGeometry>
        </mxCell>
        <mxCell id="hFQ5mz163Smq80OQc8B4-2" value="&lt;div&gt;prov:wasGeneratedBy [0..*]&lt;/div&gt;" style="text;html=1;align=center;verticalAlign=middle;resizable=0;points=[];labelBackgroundColor=#ffffff;" parent="hFQ5mz163Smq80OQc8B4-1" vertex="1" connectable="0">
          <mxGeometry x="-0.1269" relative="1" as="geometry">
            <mxPoint x="137" y="314" as="offset" />
          </mxGeometry>
        </mxCell>
        <mxCell id="hFQ5mz163Smq80OQc8B4-3" value="prov:Activity" style="rounded=0;whiteSpace=wrap;html=1;snapToPoint=1;points=[[0.1,0],[0.2,0],[0.3,0],[0.4,0],[0.5,0],[0.6,0],[0.7,0],[0.8,0],[0.9,0],[0,0.1],[0,0.3],[0,0.5],[0,0.7],[0,0.9],[0.1,1],[0.2,1],[0.3,1],[0.4,1],[0.5,1],[0.6,1],[0.7,1],[0.8,1],[0.9,1],[1,0.1],[1,0.3],[1,0.5],[1,0.7],[1,0.9]];fillColor=#FFCCE6;" parent="1" vertex="1">
          <mxGeometry x="510" y="920" width="160" height="30" as="geometry" />
        </mxCell>
        <mxCell id="NDkGinvacxbIQo6f_bav-1" value="" style="endArrow=classic;html=1;exitX=1;exitY=0.5;exitDx=0;exitDy=0;entryX=0;entryY=0.5;entryDx=0;entryDy=0;endSize=8;arcSize=0;rounded=0;" parent="1" source="umWT4CQzPr7KXGaEn9dq-2" target="NDkGinvacxbIQo6f_bav-3" edge="1">
          <mxGeometry width="50" height="50" relative="1" as="geometry">
            <mxPoint x="220" y="55" as="sourcePoint" />
            <mxPoint x="419" y="265" as="targetPoint" />
            <Array as="points">
              <mxPoint x="300" y="255" />
            </Array>
          </mxGeometry>
        </mxCell>
        <mxCell id="NDkGinvacxbIQo6f_bav-2" value="&lt;div&gt;dcterms:conformsTo [0..*]&lt;/div&gt;" style="text;html=1;align=center;verticalAlign=middle;resizable=0;points=[];labelBackgroundColor=#ffffff;" parent="NDkGinvacxbIQo6f_bav-1" vertex="1" connectable="0">
          <mxGeometry x="-0.1269" relative="1" as="geometry">
            <mxPoint x="58" as="offset" />
          </mxGeometry>
        </mxCell>
        <mxCell id="NDkGinvacxbIQo6f_bav-3" value="dcterms:Standard" style="rounded=0;whiteSpace=wrap;html=1;snapToPoint=1;points=[[0.1,0],[0.2,0],[0.3,0],[0.4,0],[0.5,0],[0.6,0],[0.7,0],[0.8,0],[0.9,0],[0,0.1],[0,0.3],[0,0.5],[0,0.7],[0,0.9],[0.1,1],[0.2,1],[0.3,1],[0.4,1],[0.5,1],[0.6,1],[0.7,1],[0.8,1],[0.9,1],[1,0.1],[1,0.3],[1,0.5],[1,0.7],[1,0.9]];" parent="1" vertex="1">
          <mxGeometry x="510" y="240" width="160" height="30" as="geometry" />
        </mxCell>
        <mxCell id="NDkGinvacxbIQo6f_bav-10" value="" style="group" parent="1" vertex="1" connectable="0">
          <mxGeometry x="-30" y="200" width="250" height="320" as="geometry" />
        </mxCell>
        <mxCell id="umWT4CQzPr7KXGaEn9dq-1" value="[1..*] dcterms:description:&amp;nbsp;rdfs:Literal&lt;div&gt;typed as xsd:string&lt;div&gt;[1..*] dcterms:title:&amp;nbsp;rdfs:Literal&lt;/div&gt;&lt;div&gt;typed as xsd:string&lt;br&gt;&lt;/div&gt;&lt;div&gt;[1..1] dcterms:issued:&amp;nbsp;rdfs:Literal&lt;/div&gt;&lt;div&gt;typed as xsd:date&lt;br&gt;&lt;/div&gt;&lt;div&gt;[1..1] dcterms:modified:&amp;nbsp;rdfs:Literal&lt;/div&gt;&lt;div&gt;typed as xsd:date&lt;br&gt;&lt;/div&gt;&lt;div&gt;[1..*] dcterms:identifier:&amp;nbsp;rdfs:Literal&lt;/div&gt;&lt;div&gt;typed as xsd:anyURL or xsd:string&lt;/div&gt;&lt;div&gt;[1..*] dcat:keyword:&amp;nbsp;rdfs:Literal&lt;/div&gt;&lt;div&gt;typed as xsd:anyURL&lt;br&gt;&lt;/div&gt;&lt;div&gt;[1..1] dcat:version:&amp;nbsp;rdfs:Literal&lt;/div&gt;&lt;div&gt;typed as xsd:string&lt;br&gt;&lt;/div&gt;&lt;div&gt;[0..1] dcat:versionNotes:&amp;nbsp;rdfs:Literal&lt;/div&gt;&lt;div&gt;typed as xsd:string&lt;br&gt;&lt;/div&gt;&lt;div&gt;&lt;span style=&quot;background-color: transparent; color: light-dark(rgb(0, 0, 0), rgb(255, 255, 255));&quot;&gt;[1..*]&lt;/span&gt;&lt;span style=&quot;background-color: transparent; color: light-dark(rgb(0, 0, 0), rgb(255, 255, 255));&quot;&gt;&amp;nbsp;&lt;/span&gt;dcterms:bibliographicCitation:&lt;span style=&quot;background-color: transparent; color: light-dark(rgb(0, 0, 0), rgb(255, 255, 255));&quot;&gt;&amp;nbsp;rdfs:Literal&lt;/span&gt;&lt;/div&gt;&lt;div&gt;&lt;span style=&quot;background-color: transparent; color: light-dark(rgb(0, 0, 0), rgb(255, 255, 255));&quot;&gt;typed as xsd:string&lt;/span&gt;&lt;br&gt;&lt;/div&gt;&lt;div&gt;&lt;div&gt;[1..1] dcterms:available:&amp;nbsp;rdfs:Literal&lt;/div&gt;&lt;div&gt;typed as xsd:date&lt;/div&gt;&lt;/div&gt;&lt;/div&gt;" style="rounded=0;whiteSpace=wrap;html=1;snapToPoint=1;points=[[0.1,0],[0.2,0],[0.3,0],[0.4,0],[0.5,0],[0.6,0],[0.7,0],[0.8,0],[0.9,0],[0,0.1],[0,0.3],[0,0.5],[0,0.7],[0,0.9],[0.1,1],[0.2,1],[0.3,1],[0.4,1],[0.5,1],[0.6,1],[0.7,1],[0.8,1],[0.9,1],[1,0.1],[1,0.3],[1,0.5],[1,0.7],[1,0.9]];" parent="NDkGinvacxbIQo6f_bav-10" vertex="1">
          <mxGeometry y="30" width="250" height="290" as="geometry" />
        </mxCell>
        <mxCell id="umWT4CQzPr7KXGaEn9dq-2" value="dcat:Resource" style="rounded=0;whiteSpace=wrap;html=1;snapToPoint=1;points=[[0.1,0],[0.2,0],[0.3,0],[0.4,0],[0.5,0],[0.6,0],[0.7,0],[0.8,0],[0.9,0],[0,0.1],[0,0.3],[0,0.5],[0,0.7],[0,0.9],[0.1,1],[0.2,1],[0.3,1],[0.4,1],[0.5,1],[0.6,1],[0.7,1],[0.8,1],[0.9,1],[1,0.1],[1,0.3],[1,0.5],[1,0.7],[1,0.9]];fillColor=#CCFFCC;" parent="NDkGinvacxbIQo6f_bav-10" vertex="1">
          <mxGeometry width="250" height="30" as="geometry" />
        </mxCell>
        <mxCell id="Jf8K7NB9ZICqQrIBF7vX-50" value="" style="endArrow=classic;html=1;exitX=0.1;exitY=1;exitDx=0;exitDy=0;endSize=8;arcSize=0;rounded=0;entryX=0.9;entryY=1;entryDx=0;entryDy=0;" parent="NDkGinvacxbIQo6f_bav-10" source="umWT4CQzPr7KXGaEn9dq-1" target="umWT4CQzPr7KXGaEn9dq-1" edge="1">
          <mxGeometry width="50" height="50" relative="1" as="geometry">
            <mxPoint x="25" y="420" as="sourcePoint" />
            <mxPoint x="225" y="420" as="targetPoint" />
            <Array as="points">
              <mxPoint x="25" y="360" />
              <mxPoint x="225" y="360" />
            </Array>
          </mxGeometry>
        </mxCell>
        <mxCell id="Jf8K7NB9ZICqQrIBF7vX-51" value="&lt;div&gt;dcterms:replaces [0..*]&lt;/div&gt;" style="text;html=1;align=center;verticalAlign=middle;resizable=0;points=[];labelBackgroundColor=#ffffff;" parent="Jf8K7NB9ZICqQrIBF7vX-50" vertex="1" connectable="0">
          <mxGeometry x="-0.1269" relative="1" as="geometry">
            <mxPoint x="18" as="offset" />
          </mxGeometry>
        </mxCell>
        <mxCell id="Jf8K7NB9ZICqQrIBF7vX-48" value="" style="endArrow=classic;html=1;exitX=0.1;exitY=1;exitDx=0;exitDy=0;endSize=8;arcSize=0;rounded=0;entryX=0.9;entryY=1;entryDx=0;entryDy=0;" parent="NDkGinvacxbIQo6f_bav-10" source="umWT4CQzPr7KXGaEn9dq-1" target="umWT4CQzPr7KXGaEn9dq-1" edge="1">
          <mxGeometry width="50" height="50" relative="1" as="geometry">
            <mxPoint x="25" y="420" as="sourcePoint" />
            <mxPoint x="225" y="420" as="targetPoint" />
            <Array as="points">
              <mxPoint x="25" y="380" />
              <mxPoint x="225" y="380" />
            </Array>
          </mxGeometry>
        </mxCell>
        <mxCell id="Jf8K7NB9ZICqQrIBF7vX-49" value="&lt;div&gt;dcat:previousVersion [0..1]&lt;/div&gt;" style="text;html=1;align=center;verticalAlign=middle;resizable=0;points=[];labelBackgroundColor=#ffffff;" parent="Jf8K7NB9ZICqQrIBF7vX-48" vertex="1" connectable="0">
          <mxGeometry x="-0.1269" relative="1" as="geometry">
            <mxPoint x="20" y="-1" as="offset" />
          </mxGeometry>
        </mxCell>
        <mxCell id="NDkGinvacxbIQo6f_bav-13" value="" style="endArrow=classic;html=1;exitX=1;exitY=0.5;exitDx=0;exitDy=0;entryX=0;entryY=0.5;entryDx=0;entryDy=0;endSize=8;arcSize=0;rounded=0;" parent="1" source="umWT4CQzPr7KXGaEn9dq-2" target="NDkGinvacxbIQo6f_bav-15" edge="1">
          <mxGeometry width="50" height="50" relative="1" as="geometry">
            <mxPoint x="220" y="260" as="sourcePoint" />
            <mxPoint x="419" y="1185" as="targetPoint" />
            <Array as="points">
              <mxPoint x="300" y="1255" />
            </Array>
          </mxGeometry>
        </mxCell>
        <mxCell id="NDkGinvacxbIQo6f_bav-14" value="&lt;div&gt;poso:hasSRS [0..*]&lt;/div&gt;" style="text;html=1;align=center;verticalAlign=middle;resizable=0;points=[];labelBackgroundColor=#ffffff;" parent="NDkGinvacxbIQo6f_bav-13" vertex="1" connectable="0">
          <mxGeometry x="-0.1269" relative="1" as="geometry">
            <mxPoint x="137" y="495" as="offset" />
          </mxGeometry>
        </mxCell>
        <mxCell id="NDkGinvacxbIQo6f_bav-15" value="poso:SRS" style="rounded=0;whiteSpace=wrap;html=1;snapToPoint=1;points=[[0.1,0],[0.2,0],[0.3,0],[0.4,0],[0.5,0],[0.6,0],[0.7,0],[0.8,0],[0.9,0],[0,0.1],[0,0.3],[0,0.5],[0,0.7],[0,0.9],[0.1,1],[0.2,1],[0.3,1],[0.4,1],[0.5,1],[0.6,1],[0.7,1],[0.8,1],[0.9,1],[1,0.1],[1,0.3],[1,0.5],[1,0.7],[1,0.9]];" parent="1" vertex="1">
          <mxGeometry x="510" y="1240" width="160" height="30" as="geometry" />
        </mxCell>
        <mxCell id="AxkStlqHGGzSuUpdA2j1-1" value="" style="endArrow=classic;html=1;exitX=1;exitY=0.5;exitDx=0;exitDy=0;entryX=0;entryY=0.5;entryDx=0;entryDy=0;endSize=8;arcSize=0;rounded=0;" parent="1" source="umWT4CQzPr7KXGaEn9dq-2" target="AxkStlqHGGzSuUpdA2j1-3" edge="1">
          <mxGeometry width="50" height="50" relative="1" as="geometry">
            <mxPoint x="230" y="225" as="sourcePoint" />
            <mxPoint x="429" y="1195" as="targetPoint" />
            <Array as="points">
              <mxPoint x="300" y="1295" />
            </Array>
          </mxGeometry>
        </mxCell>
        <mxCell id="AxkStlqHGGzSuUpdA2j1-2" value="&lt;div&gt;doo:spatialRepresentationType [0..*]&lt;/div&gt;" style="text;html=1;align=center;verticalAlign=middle;resizable=0;points=[];labelBackgroundColor=#ffffff;" parent="AxkStlqHGGzSuUpdA2j1-1" vertex="1" connectable="0">
          <mxGeometry x="-0.1269" relative="1" as="geometry">
            <mxPoint x="137" y="518" as="offset" />
          </mxGeometry>
        </mxCell>
        <mxCell id="AxkStlqHGGzSuUpdA2j1-3" value="doo:SpatialRepresentation" style="rounded=0;whiteSpace=wrap;html=1;snapToPoint=1;points=[[0.1,0],[0.2,0],[0.3,0],[0.4,0],[0.5,0],[0.6,0],[0.7,0],[0.8,0],[0.9,0],[0,0.1],[0,0.3],[0,0.5],[0,0.7],[0,0.9],[0.1,1],[0.2,1],[0.3,1],[0.4,1],[0.5,1],[0.6,1],[0.7,1],[0.8,1],[0.9,1],[1,0.1],[1,0.3],[1,0.5],[1,0.7],[1,0.9]];" parent="1" vertex="1">
          <mxGeometry x="510" y="1280" width="160" height="30" as="geometry" />
        </mxCell>
        <mxCell id="AxkStlqHGGzSuUpdA2j1-7" value="" style="endArrow=classic;html=1;exitX=1;exitY=0.5;exitDx=0;exitDy=0;entryX=0;entryY=0.5;entryDx=0;entryDy=0;endSize=8;arcSize=0;rounded=0;" parent="1" source="umWT4CQzPr7KXGaEn9dq-2" target="AxkStlqHGGzSuUpdA2j1-9" edge="1">
          <mxGeometry width="50" height="50" relative="1" as="geometry">
            <mxPoint x="220" y="295" as="sourcePoint" />
            <mxPoint x="419" y="1265" as="targetPoint" />
            <Array as="points">
              <mxPoint x="300" y="1425" />
            </Array>
          </mxGeometry>
        </mxCell>
        <mxCell id="AxkStlqHGGzSuUpdA2j1-8" value="&lt;div&gt;mmv:distribution&lt;/div&gt;" style="text;html=1;align=center;verticalAlign=middle;resizable=0;points=[];labelBackgroundColor=#ffffff;" parent="AxkStlqHGGzSuUpdA2j1-7" vertex="1" connectable="0">
          <mxGeometry x="-0.1269" relative="1" as="geometry">
            <mxPoint x="137" y="590" as="offset" />
          </mxGeometry>
        </mxCell>
        <mxCell id="AxkStlqHGGzSuUpdA2j1-9" value="mmv:Distribution" style="rounded=0;whiteSpace=wrap;html=1;snapToPoint=1;points=[[0.1,0],[0.2,0],[0.3,0],[0.4,0],[0.5,0],[0.6,0],[0.7,0],[0.8,0],[0.9,0],[0,0.1],[0,0.3],[0,0.5],[0,0.7],[0,0.9],[0.1,1],[0.2,1],[0.3,1],[0.4,1],[0.5,1],[0.6,1],[0.7,1],[0.8,1],[0.9,1],[1,0.1],[1,0.3],[1,0.5],[1,0.7],[1,0.9]];" parent="1" vertex="1">
          <mxGeometry x="510" y="1410" width="160" height="30" as="geometry" />
        </mxCell>
        <mxCell id="AxkStlqHGGzSuUpdA2j1-19" value="&lt;u&gt;doo:tabular&lt;/u&gt;" style="rounded=0;whiteSpace=wrap;html=1;snapToPoint=1;points=[[0.1,0],[0.2,0],[0.3,0],[0.4,0],[0.5,0],[0.6,0],[0.7,0],[0.8,0],[0.9,0],[0,0.1],[0,0.3],[0,0.5],[0,0.7],[0,0.9],[0.1,1],[0.2,1],[0.3,1],[0.4,1],[0.5,1],[0.6,1],[0.7,1],[0.8,1],[0.9,1],[1,0.1],[1,0.3],[1,0.5],[1,0.7],[1,0.9]];" parent="1" vertex="1">
          <mxGeometry x="510" y="1310" width="160" height="30" as="geometry" />
        </mxCell>
        <mxCell id="AxkStlqHGGzSuUpdA2j1-20" value="&lt;div&gt;&lt;u&gt;doo:vector&lt;/u&gt;&lt;/div&gt;" style="rounded=0;whiteSpace=wrap;html=1;snapToPoint=1;points=[[0.1,0],[0.2,0],[0.3,0],[0.4,0],[0.5,0],[0.6,0],[0.7,0],[0.8,0],[0.9,0],[0,0.1],[0,0.3],[0,0.5],[0,0.7],[0,0.9],[0.1,1],[0.2,1],[0.3,1],[0.4,1],[0.5,1],[0.6,1],[0.7,1],[0.8,1],[0.9,1],[1,0.1],[1,0.3],[1,0.5],[1,0.7],[1,0.9]];" parent="1" vertex="1">
          <mxGeometry x="510" y="1370" width="160" height="30" as="geometry" />
        </mxCell>
        <mxCell id="AxkStlqHGGzSuUpdA2j1-21" value="&lt;div&gt;&lt;u&gt;doo:raster&lt;/u&gt;&lt;/div&gt;" style="rounded=0;whiteSpace=wrap;html=1;snapToPoint=1;points=[[0.1,0],[0.2,0],[0.3,0],[0.4,0],[0.5,0],[0.6,0],[0.7,0],[0.8,0],[0.9,0],[0,0.1],[0,0.3],[0,0.5],[0,0.7],[0,0.9],[0.1,1],[0.2,1],[0.3,1],[0.4,1],[0.5,1],[0.6,1],[0.7,1],[0.8,1],[0.9,1],[1,0.1],[1,0.3],[1,0.5],[1,0.7],[1,0.9]];" parent="1" vertex="1">
          <mxGeometry x="510" y="1340" width="160" height="30" as="geometry" />
        </mxCell>
        <mxCell id="AxkStlqHGGzSuUpdA2j1-22" value="" style="endArrow=classic;html=1;exitX=1;exitY=0.5;exitDx=0;exitDy=0;entryX=0;entryY=0.5;entryDx=0;entryDy=0;endSize=8;arcSize=0;rounded=0;" parent="1" source="umWT4CQzPr7KXGaEn9dq-2" target="AxkStlqHGGzSuUpdA2j1-24" edge="1">
          <mxGeometry width="50" height="50" relative="1" as="geometry">
            <mxPoint x="220" y="257" as="sourcePoint" />
            <mxPoint x="419" y="1307" as="targetPoint" />
            <Array as="points">
              <mxPoint x="300" y="1465" />
            </Array>
          </mxGeometry>
        </mxCell>
        <mxCell id="AxkStlqHGGzSuUpdA2j1-23" value="&lt;div&gt;mmv:repositoryURL&lt;/div&gt;" style="text;html=1;align=center;verticalAlign=middle;resizable=0;points=[];labelBackgroundColor=#ffffff;" parent="AxkStlqHGGzSuUpdA2j1-22" vertex="1" connectable="0">
          <mxGeometry x="-0.1269" relative="1" as="geometry">
            <mxPoint x="137" y="613" as="offset" />
          </mxGeometry>
        </mxCell>
        <mxCell id="AxkStlqHGGzSuUpdA2j1-24" value="rdfs:Resource" style="rounded=0;whiteSpace=wrap;html=1;snapToPoint=1;points=[[0.1,0],[0.2,0],[0.3,0],[0.4,0],[0.5,0],[0.6,0],[0.7,0],[0.8,0],[0.9,0],[0,0.1],[0,0.3],[0,0.5],[0,0.7],[0,0.9],[0.1,1],[0.2,1],[0.3,1],[0.4,1],[0.5,1],[0.6,1],[0.7,1],[0.8,1],[0.9,1],[1,0.1],[1,0.3],[1,0.5],[1,0.7],[1,0.9]];" parent="1" vertex="1">
          <mxGeometry x="510" y="1450" width="160" height="30" as="geometry" />
        </mxCell>
        <mxCell id="AxkStlqHGGzSuUpdA2j1-25" value="" style="endArrow=classic;html=1;exitX=1;exitY=0.5;exitDx=0;exitDy=0;entryX=0;entryY=0.5;entryDx=0;entryDy=0;endSize=8;arcSize=0;rounded=0;" parent="1" source="umWT4CQzPr7KXGaEn9dq-2" target="AxkStlqHGGzSuUpdA2j1-27" edge="1">
          <mxGeometry width="50" height="50" relative="1" as="geometry">
            <mxPoint x="220" y="300" as="sourcePoint" />
            <mxPoint x="419" y="1350" as="targetPoint" />
            <Array as="points">
              <mxPoint x="300" y="1505" />
            </Array>
          </mxGeometry>
        </mxCell>
        <mxCell id="AxkStlqHGGzSuUpdA2j1-26" value="&lt;div&gt;mmv:archiveURL&lt;/div&gt;" style="text;html=1;align=center;verticalAlign=middle;resizable=0;points=[];labelBackgroundColor=#ffffff;" parent="AxkStlqHGGzSuUpdA2j1-25" vertex="1" connectable="0">
          <mxGeometry x="-0.1269" relative="1" as="geometry">
            <mxPoint x="137" y="635" as="offset" />
          </mxGeometry>
        </mxCell>
        <mxCell id="AxkStlqHGGzSuUpdA2j1-27" value="rdfs:Resource" style="rounded=0;whiteSpace=wrap;html=1;snapToPoint=1;points=[[0.1,0],[0.2,0],[0.3,0],[0.4,0],[0.5,0],[0.6,0],[0.7,0],[0.8,0],[0.9,0],[0,0.1],[0,0.3],[0,0.5],[0,0.7],[0,0.9],[0.1,1],[0.2,1],[0.3,1],[0.4,1],[0.5,1],[0.6,1],[0.7,1],[0.8,1],[0.9,1],[1,0.1],[1,0.3],[1,0.5],[1,0.7],[1,0.9]];" parent="1" vertex="1">
          <mxGeometry x="510" y="1490" width="160" height="30" as="geometry" />
        </mxCell>
        <mxCell id="AxkStlqHGGzSuUpdA2j1-29" value="" style="endArrow=classic;html=1;exitX=1;exitY=0.5;exitDx=0;exitDy=0;entryX=0;entryY=0.5;entryDx=0;entryDy=0;endSize=8;arcSize=0;rounded=0;" parent="1" source="umWT4CQzPr7KXGaEn9dq-2" target="AxkStlqHGGzSuUpdA2j1-31" edge="1">
          <mxGeometry width="50" height="50" relative="1" as="geometry">
            <mxPoint x="220" y="340" as="sourcePoint" />
            <mxPoint x="419" y="1390" as="targetPoint" />
            <Array as="points">
              <mxPoint x="300" y="1585" />
            </Array>
          </mxGeometry>
        </mxCell>
        <mxCell id="AxkStlqHGGzSuUpdA2j1-30" value="&lt;div&gt;prov:wasDerivedFrom&lt;/div&gt;" style="text;html=1;align=center;verticalAlign=middle;resizable=0;points=[];labelBackgroundColor=#ffffff;" parent="AxkStlqHGGzSuUpdA2j1-29" vertex="1" connectable="0">
          <mxGeometry x="-0.1269" relative="1" as="geometry">
            <mxPoint x="137" y="680" as="offset" />
          </mxGeometry>
        </mxCell>
        <mxCell id="AxkStlqHGGzSuUpdA2j1-31" value="prov:Entity" style="rounded=0;whiteSpace=wrap;html=1;snapToPoint=1;points=[[0.1,0],[0.2,0],[0.3,0],[0.4,0],[0.5,0],[0.6,0],[0.7,0],[0.8,0],[0.9,0],[0,0.1],[0,0.3],[0,0.5],[0,0.7],[0,0.9],[0.1,1],[0.2,1],[0.3,1],[0.4,1],[0.5,1],[0.6,1],[0.7,1],[0.8,1],[0.9,1],[1,0.1],[1,0.3],[1,0.5],[1,0.7],[1,0.9]];fillColor=#E5CCFF;" parent="1" vertex="1">
          <mxGeometry x="510" y="1570" width="160" height="30" as="geometry" />
        </mxCell>
        <mxCell id="AxkStlqHGGzSuUpdA2j1-33" value="" style="endArrow=classic;html=1;exitX=1;exitY=0.5;exitDx=0;exitDy=0;entryX=0;entryY=0.5;entryDx=0;entryDy=0;endSize=8;arcSize=0;rounded=0;" parent="1" source="umWT4CQzPr7KXGaEn9dq-2" target="AxkStlqHGGzSuUpdA2j1-35" edge="1">
          <mxGeometry width="50" height="50" relative="1" as="geometry">
            <mxPoint x="220" y="250" as="sourcePoint" />
            <mxPoint x="419" y="1425" as="targetPoint" />
            <Array as="points">
              <mxPoint x="300" y="1625" />
            </Array>
          </mxGeometry>
        </mxCell>
        <mxCell id="AxkStlqHGGzSuUpdA2j1-34" value="&lt;div&gt;prov:wasInfluencedBy&lt;/div&gt;" style="text;html=1;align=center;verticalAlign=middle;resizable=0;points=[];labelBackgroundColor=#ffffff;" parent="AxkStlqHGGzSuUpdA2j1-33" vertex="1" connectable="0">
          <mxGeometry x="-0.1269" relative="1" as="geometry">
            <mxPoint x="137" y="703" as="offset" />
          </mxGeometry>
        </mxCell>
        <mxCell id="AxkStlqHGGzSuUpdA2j1-35" value="prov:Entity" style="rounded=0;whiteSpace=wrap;html=1;snapToPoint=1;points=[[0.1,0],[0.2,0],[0.3,0],[0.4,0],[0.5,0],[0.6,0],[0.7,0],[0.8,0],[0.9,0],[0,0.1],[0,0.3],[0,0.5],[0,0.7],[0,0.9],[0.1,1],[0.2,1],[0.3,1],[0.4,1],[0.5,1],[0.6,1],[0.7,1],[0.8,1],[0.9,1],[1,0.1],[1,0.3],[1,0.5],[1,0.7],[1,0.9]];fillColor=#E5CCFF;" parent="1" vertex="1">
          <mxGeometry x="510" y="1610" width="160" height="30" as="geometry" />
        </mxCell>
        <mxCell id="3MnSHK3D13BEv3o__n3n-1" value="" style="endArrow=classic;html=1;exitX=1;exitY=0.5;exitDx=0;exitDy=0;entryX=0;entryY=0.5;entryDx=0;entryDy=0;endSize=8;arcSize=0;rounded=0;" edge="1" parent="1" target="3MnSHK3D13BEv3o__n3n-3" source="umWT4CQzPr7KXGaEn9dq-2">
          <mxGeometry width="50" height="50" relative="1" as="geometry">
            <mxPoint x="-200" y="825" as="sourcePoint" />
            <mxPoint x="-1" y="1360" as="targetPoint" />
            <Array as="points">
              <mxPoint x="300" y="1545" />
            </Array>
          </mxGeometry>
        </mxCell>
        <mxCell id="3MnSHK3D13BEv3o__n3n-2" value="&lt;div&gt;mmv:demoURL&lt;/div&gt;" style="text;html=1;align=center;verticalAlign=middle;resizable=0;points=[];labelBackgroundColor=#ffffff;" vertex="1" connectable="0" parent="3MnSHK3D13BEv3o__n3n-1">
          <mxGeometry x="-0.1269" relative="1" as="geometry">
            <mxPoint x="140" y="658" as="offset" />
          </mxGeometry>
        </mxCell>
        <mxCell id="3MnSHK3D13BEv3o__n3n-3" value="rdfs:Resource" style="rounded=0;whiteSpace=wrap;html=1;snapToPoint=1;points=[[0.1,0],[0.2,0],[0.3,0],[0.4,0],[0.5,0],[0.6,0],[0.7,0],[0.8,0],[0.9,0],[0,0.1],[0,0.3],[0,0.5],[0,0.7],[0,0.9],[0.1,1],[0.2,1],[0.3,1],[0.4,1],[0.5,1],[0.6,1],[0.7,1],[0.8,1],[0.9,1],[1,0.1],[1,0.3],[1,0.5],[1,0.7],[1,0.9]];" vertex="1" parent="1">
          <mxGeometry x="510" y="1530" width="160" height="30" as="geometry" />
        </mxCell>
      </root>
    </mxGraphModel>
  </diagram>
</mxfile>
